<svg width="38" height="38" viewBox="0 0 38 38" fill="none" xmlns="http://www.w3.org/2000/svg">
<path fillRule="evenodd" clipRule="evenodd" d="M8.33294 4.5238C6.22838 4.5238 4.52229 6.22512 4.52229 8.3238V13.2095C4.52229 15.3082 6.22838 17.0095 8.33294 17.0095H17.011V8.3238C17.011 6.22512 15.305 4.5238 13.2004 4.5238H8.33294ZM8.33294 33.4762C6.22838 33.4762 4.52229 31.7749 4.52229 29.6762V24.7905C4.52229 22.6918 6.22838 20.9905 8.33294 20.9905H17.011V29.6762C17.011 31.7749 15.305 33.4762 13.2004 33.4762H8.33294ZM29.6671 4.5238C31.7716 4.5238 33.4777 6.22512 33.4777 8.3238V13.2095C33.4777 15.3082 31.7716 17.0095 29.6671 17.0095H20.989V8.3238C20.989 6.22512 22.695 4.5238 24.7996 4.5238H29.6671ZM29.6671 33.4762C31.7716 33.4762 33.4777 31.7749 33.4777 29.6762V24.7905C33.4777 22.6918 31.7716 20.9905 29.6671 20.9905H20.989V29.6762C20.989 31.7749 22.695 33.4762 24.7996 33.4762H29.6671Z" fill="#1567E2"/>
</svg>
